<svg width="22" height="16" viewBox="0 0 22 16" fill="none" xmlns="http://www.w3.org/2000/svg">
<path fill-rule="evenodd" clip-rule="evenodd" d="M21.2 7.55C21.125 7.025 20.9 6.5 20.525 6.125C20.3 5.9 20.3 5.6 20.45 5.3C20.75 4.85 20.75 4.25 20.45 3.875C20.075 3.275 19.25 2.975 18.575 2.975C18.425 2.975 18.275 2.975 18.2 2.975C17.9 2.825 17.825 2.6 17.675 2.45C17.15 1.85 16.625 1.1 15.8 0.65C15.275 0.5 14.6 0.5 14.075 0.5C12.125 0.5 10.25 0.5 8.3 0.5C7.475 0.5 6.575 0.5 5.9 0.875C5.225 1.25 4.7 2 4.325 2.525C4.175 2.75 4.1 2.9 3.95 2.9C3.8 3.05 3.575 3.05 3.425 3.05C2.6 3.05 2 3.425 1.55 3.95C1.25 4.325 1.25 5 1.55 5.45C1.7 5.675 1.7 6.05 1.475 6.275C1.1 6.725 0.875 7.175 0.725 7.7C0.575 8.45 0.575 9.2 0.5 9.95V10.025C0.5 11.15 0.5 12.275 0.65 13.4C0.8 14.3 1.025 15.2 2.075 15.425C2.975 15.65 4.025 15.575 4.85 14.9C5 14.75 5 14.75 5.15 14.6C5.3 14.6 5.45 14.6 5.525 14.6C9.2 14.6 12.95 14.6 16.625 14.6C16.775 14.6 16.775 14.6 16.925 14.6C17.075 14.6 17.075 14.75 17.225 14.825C17.525 15.2 18.05 15.2 18.575 15.35C19.25 15.5 19.925 15.5 20.525 15.125C21.2 14.75 21.35 14 21.425 13.25C21.575 12.35 21.575 11.45 21.575 10.625C21.575 10.4 21.575 10.1 21.575 9.875C21.5 9.05 21.5 8.3 21.2 7.55ZM20.375 10.55C20.375 11.45 20.375 12.2 20.225 13.025C20.15 13.475 20.075 14 19.85 14.075C19.625 14.225 19.4 14.225 19.175 14.225C19.025 14.225 18.875 14.225 18.65 14.15C18.575 14.15 18.425 14.075 18.275 14.075C18.2 14.075 18.05 14 17.975 14C17.6 13.475 17.225 13.4 16.925 13.4H4.7L4.1 14C3.725 14.3 3.275 14.375 2.975 14.375C2.75 14.375 2.6 14.375 2.375 14.3C2.15 14.225 1.85 14.15 1.775 13.175C1.625 12.2 1.625 11.15 1.625 10.025C1.7 9.65 1.7 9.275 1.775 8.9C1.775 8.525 1.85 8.225 1.925 7.85C2 7.4 2.225 7.025 2.675 6.65L3.2 6.2C3.575 5.9 3.575 5.3 3.125 5.075L2.525 4.7C2.45 4.7 2.45 4.475 2.45 4.475C2.675 4.25 2.975 4.1 3.425 4.1C3.575 4.1 4.025 4.1 4.4 3.875C4.7 3.8 5 3.575 5.3 3.05L5.375 2.9C5.675 2.45 6.125 2 6.5 1.775C6.875 1.55 7.7 1.55 8.3 1.55H14.075C14.525 1.55 14.975 1.55 15.275 1.7C15.725 1.925 16.1 2.375 16.475 2.9L16.775 3.275L16.85 3.35C17 3.575 17.225 3.875 17.675 4.025L17.9 4.1H18.575C18.95 4.1 19.325 4.25 19.475 4.475V4.55V4.625C19.475 4.625 19.475 4.7 19.4 4.7L18.875 5C18.425 5.225 18.425 5.825 18.8 6.125L19.325 6.575C19.775 6.875 20 7.325 20.075 7.775V7.85V7.925C20.3 8.525 20.3 9.125 20.3 9.8V10.55H20.375Z" fill="#1F2125"/>
<path d="M14.3003 4.77503C14.2253 4.70003 14.2253 4.77503 14.1503 4.77503C14.0003 4.85003 13.8503 4.92503 13.7003 5.00003C13.5503 5.07503 13.4753 5.15003 13.4003 5.22503C12.9503 5.90003 12.4253 6.57503 11.9753 7.17503C11.7503 7.47503 11.5253 7.85003 11.2253 8.15003C10.9253 8.45003 10.9253 8.45003 10.7003 8.15003C10.1003 7.47503 9.57533 6.65003 9.05033 5.90003C8.75033 5.45003 8.45033 4.92503 7.85033 4.85003C7.77533 4.77503 7.77533 4.77503 7.70033 4.77503C7.62533 4.85003 7.70033 4.92503 7.70033 5.00003C8.00033 5.67503 8.30033 6.42503 8.60033 7.10003C9.05033 8.15003 9.50033 9.20003 10.1003 10.25C10.2503 10.55 10.4753 10.85 10.7003 11.075C10.9253 11.3 11.0753 11.3 11.3003 11.075C11.4503 10.925 11.5253 10.775 11.6753 10.625C12.2003 9.80003 12.6503 8.90003 13.1003 8.00003C13.5503 7.02503 14.0003 5.97503 14.4503 5.00003C14.3753 4.92503 14.3753 4.85003 14.3003 4.77503ZM13.4003 6.35003C12.8753 7.32503 12.3503 8.37503 11.8253 9.35003C11.6003 9.72503 11.3753 10.1 11.1503 10.475C11.0753 10.625 11.0003 10.55 10.8503 10.475C10.7003 10.325 10.6253 10.175 10.5503 10.025C10.1003 9.27503 9.72533 8.52503 9.35033 7.77503C8.90033 6.87503 8.45033 5.90003 7.85033 5.00003V4.92503C7.85033 5.07503 8.00033 5.07503 8.07533 5.15003C8.30033 5.22503 8.45033 5.37503 8.60033 5.52503C9.05033 6.20003 9.50033 6.80003 9.87533 7.47503C10.1003 7.77503 10.3253 8.07503 10.5503 8.37503C10.9253 8.75003 11.0003 8.75003 11.3753 8.37503C12.0503 7.55003 12.5753 6.72503 13.1753 5.82503C13.2503 5.67503 13.4003 5.52503 13.4753 5.37503H13.5503C13.7003 5.22503 13.9253 5.15003 14.1503 5.07503C14.0753 5.15003 14.0753 5.22503 14.0003 5.30003C13.7753 5.60003 13.5503 5.97503 13.4003 6.35003Z" fill="#1F2125"/>
<path d="M13.5506 5.45007C13.1006 6.20007 12.5756 6.95007 12.1256 7.70007C11.8256 8.15007 11.6006 8.60007 11.2256 9.05007C11.0756 9.20007 11.0006 9.20007 10.8506 9.05007C10.4756 8.67507 10.2506 8.22507 9.95059 7.77507C9.50059 6.95007 8.97559 6.20007 8.52559 5.37507C8.45059 5.22507 8.37559 5.15007 8.22559 5.07507C8.22559 5.15007 8.22559 5.22507 8.30059 5.22507C8.67559 5.82507 8.97559 6.50007 9.35059 7.10007C9.80059 7.85007 10.1756 8.60007 10.7006 9.35007C11.0006 9.80007 11.0756 9.80007 11.4506 9.35007C11.9756 8.67507 12.2756 7.92507 12.7256 7.25007C13.0256 6.87507 13.1756 6.42507 13.4006 5.97507C13.5506 5.67507 13.7006 5.37507 13.9256 5.07507C13.7006 5.22507 13.6256 5.37507 13.5506 5.45007Z" fill="#1F2125"/>
<path fill-rule="evenodd" clip-rule="evenodd" d="M9.05039 11.225C9.05039 11.45 8.90039 11.6 8.67539 11.375C8.52539 11.225 8.52539 11.15 8.45039 11.075C8.30039 10.7 8.22539 10.4 7.85039 10.175C7.47539 9.87503 6.87539 9.87503 6.42539 9.72503C6.05039 9.50003 5.75039 9.35003 5.37539 9.27503C5.22539 9.20003 5.00039 9.20003 4.92539 9.20003C4.77539 9.20003 4.70039 9.27503 4.55039 9.27503C4.32539 9.42503 3.95039 9.27503 3.72539 9.20003C3.35039 9.05003 3.12539 8.82503 2.90039 8.52503C2.75039 8.37503 2.67539 8.15003 2.52539 7.92503C2.52539 7.70003 2.67539 7.47503 2.75039 7.32503C2.97539 7.17503 3.35039 7.32503 3.57539 7.55003C4.77539 8.22503 6.05039 8.37503 7.40039 8.67503C7.77539 8.82503 8.15039 8.90003 8.37539 9.12503C8.60039 9.35003 8.75039 9.57503 8.75039 9.80003C8.90039 10.175 8.97539 10.475 8.97539 10.925C9.12539 11 9.12539 11.075 9.05039 11.225Z" fill="#1F2125"/>
<path fill-rule="evenodd" clip-rule="evenodd" d="M13.0997 11.225C13.0997 11.45 13.2497 11.6 13.4747 11.375C13.6247 11.225 13.6247 11.15 13.6997 11.075C13.8497 10.7 13.9247 10.4 14.2997 10.175C14.6747 9.87498 15.2747 9.87498 15.7247 9.72498C16.0997 9.57498 16.3997 9.49998 16.7747 9.34998C16.9247 9.27498 17.1497 9.27498 17.2247 9.27498C17.3747 9.27498 17.4497 9.34998 17.5997 9.34998C17.8247 9.49998 18.1997 9.34998 18.4247 9.27498C18.7997 9.12498 19.0247 8.89998 19.2497 8.59998C19.3997 8.44998 19.4747 8.22498 19.6247 7.99998C19.6247 7.77498 19.4747 7.54998 19.3997 7.39998C19.1747 7.24998 18.7997 7.39998 18.5747 7.62498C17.3747 8.29998 16.0997 8.44998 14.7497 8.74998C14.3747 8.89998 13.9997 8.97498 13.7747 9.19998C13.5497 9.42498 13.3997 9.64998 13.3997 9.87498C13.2497 10.25 13.1747 10.55 13.1747 11C12.9497 11 12.9497 11.075 13.0997 11.225Z" fill="#1F2125"/>
</svg>
