<svg width="18" height="18" viewBox="0 0 18 18" fill="none" xmlns="http://www.w3.org/2000/svg">
<path d="M13.167 16.5V14.8333C13.167 13.9493 12.8158 13.1014 12.1907 12.4763C11.5656 11.8512 10.7177 11.5 9.83366 11.5H4.00033C3.11627 11.5 2.26842 11.8512 1.6433 12.4763C1.01818 13.1014 0.666992 13.9493 0.666992 14.8333V16.5M12.3545 1.75065C13.5651 2.25024 14.4171 3.44223 14.4171 4.83323C14.4171 6.23497 13.5519 7.43462 12.3263 7.92726M17.3337 16.4999V14.8332C17.3331 14.0947 17.0873 13.3772 16.6348 12.7935C16.1823 12.2098 15.5488 11.7929 14.8337 11.6082M10.2503 4.83333C10.2503 6.67428 8.75794 8.16667 6.91699 8.16667C5.07604 8.16667 3.58366 6.67428 3.58366 4.83333C3.58366 2.99238 5.07604 1.5 6.91699 1.5C8.75794 1.5 10.2503 2.99238 10.2503 4.83333Z" stroke="#6B7280" stroke-width="1.2" stroke-linecap="round" stroke-linejoin="round"/>
</svg>
