<svg width="19" height="18" viewBox="0 0 19 18" fill="none" xmlns="http://www.w3.org/2000/svg">
<path d="M12.8337 16.5V3.16667C12.8337 2.72464 12.6581 2.30072 12.3455 1.98816C12.0329 1.67559 11.609 1.5 11.167 1.5H7.83366C7.39163 1.5 6.96771 1.67559 6.65515 1.98816C6.34259 2.30072 6.16699 2.72464 6.16699 3.16667V16.5M2.83366 4.83333H16.167C17.0875 4.83333 17.8337 5.57953 17.8337 6.5V14.8333C17.8337 15.7538 17.0875 16.5 16.167 16.5H2.83366C1.91318 16.5 1.16699 15.7538 1.16699 14.8333V6.5C1.16699 5.57953 1.91318 4.83333 2.83366 4.83333Z" stroke="#6B7280" stroke-width="1.2" stroke-linecap="round" stroke-linejoin="round"/>
</svg>
