<svg version="1.2" xmlns="http://www.w3.org/2000/svg" viewBox="0 0 500 328" width="500" height="328">
	<title>No BG_Logo_White_500x500</title>
	<style>
		.s0 { fill: #ffffff } 
		.s1 { fill: #07f668 } 
	</style>
	<path class="s0" d="m235.1 9.3v25.9c0 4.8-3.9 8.6-8.6 8.6h-131.1c-6.3 0-12.2 2.4-16.6 6.8-4.5 4.5-7 10.4-7 16.7v95.9c0 5.4-4.4 9.8-9.7 9.8h-23.5c-5.4 0-9.8-4.4-9.8-9.8v-104.9c0-5.4 4.4-9.8 9.8-9.8h14.5c6.3 0 12.2-2.4 16.7-6.9 4.4-4.4 6.8-10.3 6.8-16.6v-14.7c0-5.3 4.3-9.6 9.6-9.6h140.3c4.7 0 8.6 3.9 8.6 8.6z"/>
	<path class="s0" d="m296.9 226.2c-5.4 0-9.7-4.3-9.7-9.7v-85.7c0-5.3 4.3-9.6 9.6-9.6h14.6c6.3 0 12.2-2.4 16.6-6.8 4.5-4.4 6.9-10.3 7-16.6 0-13.4 10.7-24.3 24.1-24.3h90.6c5.4 0 9.7 4.3 9.7 9.7v23.5c0 5.4-4.3 9.8-9.7 9.8h-95.9c-6.3 0-12.2 2.4-16.7 6.8-4.5 4.6-6.9 10.5-6.9 16.7v76.5c0 5.4-4.4 9.7-9.7 9.7h-23.5z"/>
	<path class="s1" d="m300.5 92.2c-15.1 2.8-28.1-10.2-25.5-25.4 1.6-8.7 8.2-15.4 16.9-17.3 2.5-0.5 4.7-0.6 6.9-0.3q1.5 0.1 2.9 0.1c5.2 0 9.8-1.6 13.4-4.7l1.1-1c4.3-3.7 6.8-9.2 6.8-14.9v-18.2c0-5.4 4.4-9.8 9.7-9.8h138.5c5.4 0 9.7 4.4 9.7 9.8v24c0 5.4-4.3 9.8-9.7 9.8h-132.6c-5.8 0-11.3 2.5-15.1 6.8l-0.8 1c-3.7 4.3-5.4 10.1-4.6 16.3q0.2 1.6 0.1 3.3c-0.4 10-7.8 18.7-17.7 20.5z"/>
	<path class="s0" d="m86.6 226.2c-5.3 0-9.7-4.3-9.7-9.7v-24c0-5.4 4.4-9.8 9.7-9.8h102.6c5.8 0 11.3-2.5 15-6.8l0.9-1.1c4.2-4.7 4.4-10.4 4.7-16.4 0-1.5 0-3.9-0.1-5.3-0.3-5.4-0.7-11-4.6-15.5l-0.9-1.1c-3.7-4.3-9.2-6.8-15-6.8h-53.1c-5.4 0-9.8-4.4-9.8-9.8v-24c0-5.4 4.4-9.7 9.8-9.7h58.9c5.4 0 9.8 4.3 9.8 9.7v18.2c0 5.8 2.5 11.2 6.8 15l1.1 0.9c3.6 3.1 8.2 4.8 12.9 4.8q1.4 0 2.7-0.1c1.7-0.3 3.3-0.3 5-0.2 4 0.4 7.8 1.8 11 4.2 6.8 5.1 9.9 13.2 8.4 21.4-1.8 10.5-11.1 18-21.8 17.8q-1.2 0-2.4-0.1-1.3-0.2-2.7-0.2c-4.9 0-9.5 1.7-13.1 4.8l-1.1 0.9c-4.3 3.8-6.8 9.3-6.8 15v6.9c0 11.6-9.4 21-21 21h-97.2z"/>
	<g>
		<path class="s0" d="m0 318.4v-39.7l8.8-8.9h32.8v10.2h-30v37.1h22.7v-14.6h-13.8v-9.5h24.3v34.2h-35.9l-8.9-8.8z"/>
		<path class="s0" d="m51.1 327.2v-36.9l9-9h23.6v10.5h-21v35.4z"/>
		<path class="s0" d="m87 318.5v-28.5l8.7-8.7h32.3v25.8h-29.3v10.3h27.7v9.8h-30.7c0 0-8.7-8.7-8.7-8.7zm11.6-17.8l19.2-0.8v-9.4h-19.2z"/>
		<path class="s0" d="m133.3 318.5v-28.5l8.7-8.7h32.3v25.8h-29.3v10.3h27.7v9.8h-30.7c0 0-8.7-8.7-8.7-8.7zm11.7-17.8l19.2-0.8v-9.4h-19.2z"/>
		<path class="s0" d="m180.2 327.2v-45.9h33.3l9 9v36.9h-11.6v-35.7h-19v35.7c0 0-11.7 0-11.7 0z"/>
		<path class="s0" d="m248.3 327.2v-57.4h39.3v10.5h-27.7v17.7h26.1v10.2h-26.1v19h-11.6z"/>
		<path class="s0" d="m334.6 281.3v45.9h-33.3l-9-9v-36.9h11.6v35.8h19.1v-35.8h11.6z"/>
		<path class="s0" d="m341.1 273.9l11.6-4.1v13.2h17.7v9.8h-17.7v24.6h17.7v9.8h-20.3l-9-9z"/>
		<path class="s0" d="m416.6 281.3v45.9h-33.3l-9-9v-36.9h11.6v35.8h19.1v-35.8h11.6z"/>
		<path class="s0" d="m423.1 327.2v-36.9l9-9h23.6v10.5h-21v35.4z"/>
		<path class="s0" d="m459 318.5v-28.5l8.7-8.7h32.3v25.8h-29.4v10.3h27.8v9.8h-30.7c0 0-8.7-8.7-8.7-8.7zm11.6-17.8l19.2-0.8v-9.4h-19.2z"/>
	</g>
</svg>